<svg xmlns="http://www.w3.org/2000/svg" viewBox="0 0 416.01 282.46"><defs><style>.cls-1{fill:#c76a4a;}.cls-2{fill:#c86846;}.cls-3{fill:#c27157;}.cls-4{fill:#b25d3b;}.cls-5{fill:#c18d69;}.cls-6{fill:#8a5a44;}.cls-7{fill:#c37760;}.cls-8{fill:#a66346;}.cls-9{fill:#776154;}.cls-10{fill:#f8ecde;}.cls-11{fill:#d4b08b;}.cls-12{fill:#e18762;}.cls-13{fill:#eba383;}.cls-14{fill:#f0cca9;}.cls-15{fill:#fdf6ef;}.cls-16{font-size:24px;fill:#3e2721;font-family:Lato-Bold, Lato;font-weight:700;}.cls-17{letter-spacing:-0.08em;}.cls-18{letter-spacing:-0.03em;}</style></defs><g id="Layer_2" data-name="Layer 2"><g id="Layer_1-2" data-name="Layer 1"><path class="cls-1" d="M211.51,195c-1.85,1.88-3.79,3.69-5.55,5.67-4.27,4.8-5.35,10.25-2.68,16.18,2.48,5.51,7.47,7.44,12.93,8,11.94,1.26,24.56-7.75,27.58-19.37,1.75-6.75-.23-12.55-4.82-17.47-4.2-4.49-8.75-8.65-13-13.07-9.64-9.95-9.37-20.69,1-29.87,11-9.71,24.1-13.22,38.49-11.48,9.37,1.13,12.83,7,9.72,15.33-2.76.21-3.61,1.77-3.07,4.32-1.52-.65-2.92,1.39-4.48.25.09-1.45.19-2.85.28-4.25,2.42-9.92-.75-13.47-11.1-12.2a37.09,37.09,0,0,0-20.1,8.75,8.48,8.48,0,0,0-3.3,3.59l-.29.24c-4.9,5.71-5,10.8-.36,16.5h0l.94,1c2.36,4.33,6.39,7.13,10,10.19,20,17.05,10.64,37.28-6.78,46.48-9.12,4.81-18.85,6.37-29,3.47-8.88-2.55-14.15-8.52-14.2-15.85-.07-8.44,5.4-15.66,14-18.47,2.41.52,4.52-.64,6.75-1.15l.76-.46c-.07,1.65-1.28,2.58-2.27,3.65l-.12.06Z"/><path class="cls-2" d="M59.91,121.13c9.41-1.35,18.13.26,26.09,5.7a29.2,29.2,0,0,1,13.32,23.91c.93,23.12-7.75,42-26,56.49.41-3.43-4.43-3.12-4.45-6.24.73-.89,1.43-1.81,2.2-2.66,11.4-12.63,18.53-27.06,18.64-44.42.08-14.09-5.89-25.47-21.83-29-.58-2.59-2.68-1.67-4.29-1.84S60.26,123.49,59.91,121.13Z"/><path class="cls-1" d="M285.9,208.74c-4.86-1.31-6.21-5.45-7.31-9.43-3,2.79-5.92,5.48-8.87,8.08s-6.07,3.67-9.64,1.84-4-5.29-3.66-8.64c1.27-11.12,6.11-20.34,15.6-26.64,4.64-3.08,8.76-2.81,12.51.92,1.7,1.68,2.15.35,3.06-.38,1.87-1.51,4-2.05,6-.62,2.34,1.69.51,3.64-.22,5.34-2.76,6.44-5.34,12.92-5.93,20-.16,1.81-.44,4,1.63,4.83s3.14-1.19,4.33-2.51a11.47,11.47,0,0,0,2.67-6.29c1.53-9.89,4-19.52,8.7-28.46,1.21,1.9-.34,4.58,1.58,6.18.83.68,1.71,1.15,1.12,2.26-.43.83-1.36.73-2.2.47-3-1-3.53,1-3.21,3.19a5.08,5.08,0,0,1-.48,3.77c-4.58,6.85-3.69,15.14-6,22.59C292,205.47,289.69,209.1,285.9,208.74ZM283,179.43a2.46,2.46,0,0,0-1.24-2.3c-1.56-.87-3-.11-4.11.88A37.79,37.79,0,0,0,265,201.08a3.37,3.37,0,0,0,1.32,3.56c1.6.93,2.88-.32,3.89-1.35,4.43-4.57,7.68-10,10.64-15.57A14.4,14.4,0,0,0,283,179.43Z"/><path class="cls-3" d="M163.75,205.33c-.31-.11-.79-.12-.92-.34-4.17-7.07-8.13-2.64-12.33.06-3.2,2.06-6.58,4.62-10.57,4-10.7-1.73-12.28-3.9-11.8-15.42.11-2.75-.89-2.67-2.88-2s-2.88,2-3.77,3.7A30.31,30.31,0,0,1,110.19,207c-4.12,2.51-8.55,2.92-12.83.68s-5.44-6.32-5.09-10.64c.79-9.56,4.57-17.6,13.19-22.65a23.23,23.23,0,0,0,3.71-3.25c3.74-3.34,9.74-4.39,13.47-2.28,4.44,2.49,4.24,6.72,3.85,11a8.42,8.42,0,0,0-.21,2c.26,1.81-2.12,4.4.34,5.27,2.7.95,4.27-1.58,5.6-3.86,3.52-6,8.21-10.83,14.68-13.71-4.34,6-10.33,10.44-14.09,17.17a21.85,21.85,0,0,0-2.63,14.13,5.23,5.23,0,0,0,6.21,4.66c.3-3.34-2.58-6-1.56-8.87,2.71-7.67,5.74-15.29,11.77-21.11,1.37-1.33,3-2.8,5.25-2.42a48.65,48.65,0,0,0-13.31,18.85,17.32,17.32,0,0,0-1.3,6.8c.14,5,3.1,6.8,7.92,5.47,4.38-1.2,7.32-4.44,10.89-6.79A11.09,11.09,0,0,1,163.75,205.33ZM104,187c-1.15,4.28-3,8.42-2.26,13.05.69,4.35,3.07,5.84,6.92,3.92,4.11-2.06,6.93-5.53,9.3-9.38,1.2-1.93.34-2.41-1.57-2.81-3.59-.77-7-2-8.87-5.64,4.7-1.4,1.16-4.88,1.74-7.32.13-.52-.39-2.67-1.38-2-2,1.45-5.36,1.29-5.85,4.28C101.68,183.26,99.94,186.27,104,187Zm19.13-8.19c0-3.33.1-6.25-3.11-7.24s-5.38,1-6.9,3.58a14.38,14.38,0,0,0-1.81,4.59c-.71,4.06,2.65,8.71,6.64,9.13,4.81.51,3.56-3.85,4.6-6.25A12.74,12.74,0,0,0,123.12,178.85Zm-26.55,8.57c-1.87,2.37-2.62,4.75-.4,7.08,1.19,1.23,1.42,1.5-.13,2.82-2.87,2.42-.51,4.8,1.07,6.76.93,1.16,2.17,3.6,3.69,2.51,2.14-1.53-1.65-3.1-.91-5.11.19-.54-.23-1.28-.24-1.94C99.59,195.42,100.66,191.07,96.57,187.42Z"/><path class="cls-4" d="M192.91,127.89c-4.72,0-9-1.53-13.25-3.47-2.24-1-3.33-2.88-4-5.31-2.81-10-5.85-20-8.81-29.95l0-3.27c.75.33,1.56,1,2.23.93,5.11-.89,10.15-1.89,15,1.07.62.38,2,0,2.81-.5,2.54-1.63,5-1.13,7.5,0a9.23,9.23,0,0,0,6.76.35c3-1.06,5.82-.48,8.69.29,0,.63,0,1.26,0,1.89-2.27.07-2,1.67-2,3.18,0,9.16-.09,18.31,0,27.47,0,1.93-1,5,2.3,5,2.8,0,6.5-.08,6.42-4.36-.19-9.82,2.73-19.4,2.08-29.24.07-.64.15-1.29.22-1.94a6.31,6.31,0,0,0,1-3.71l2-.08c.27,1.15.53,2.3.8,3.45-.86,7.16-2.21,14.3-2.42,21.48-.14,4.64-2.36,9.27-.38,14-.72,2.94-3.13,1.77-4.9,1.91C207.64,127.61,200.21,126,192.91,127.89Zm-12.69-35c.81,9.14,4,17.78,5.72,26.72.69,3.52,2.65,5.8,6,5.12,3.92-.81,2.07-4.56,1.61-6.66C191.6,109.15,191.31,100,189.8,91c-2.74-2.16-5.86-.57-8.78-.77C179.42,90.14,180.05,91.87,180.22,92.92Zm23.7,32.3c1.68-.13.71-1.39.92-2.15-.1-10.11.57-20.25-1.27-30.28-1.19-5.63-5.81,0-8.13-2.43a1.31,1.31,0,0,0-2.19,1.32c.06.43.51.8.79,1.2-1,9.41,1.49,18.56,2.23,27.84C196.66,125.66,199.84,126.32,203.92,125.22Zm-20.22-2.3c-2.44-11-4.71-21.27-7-31.56-.54-2.42-2.4-2.57-4.29-2.14-2.26.52-1.47,2.2-1.06,3.6,2.41,8.27,4.89,16.51,7.24,24.8A7,7,0,0,0,183.7,122.92Z"/><path class="cls-5" d="M209.88,88c-2.87-.77-5.65-1.35-8.69-.29a9.23,9.23,0,0,1-6.76-.35c-2.49-1.08-5-1.58-7.5,0-.77.49-2.19.88-2.81.5-4.88-3-9.92-2-15-1.07-.67.12-1.48-.6-2.23-.93-1.73-2.48-3.29-5-.73-7.84,4,7,8.63,7.89,16.91,3.15,2.66-.18,4.56-2.11,6.9-3,2.69.2,5.33-2.49,8.7,0-3.48,1.25-6.91,1.55-9.54,4.64,14.54,5.07,27.69.32,40.92-3.59,3.46-1.17,6.95-2.29,9.61-5,1.59-1.62,3-3.32,1.77-5.71a10.63,10.63,0,0,0-5.91-5.09,1.08,1.08,0,0,0-1.52.84c-1.66,6.45-7.79,7.67-12.42,10.65-2-.22-4.25,1.16-6-.9,3.47-1.93,7.6-2.26,10.84-4.77,3.79-2.93,5.52-6.72,4.49-11.32-.81-3.64-2.48-7-6.76-8.35.53,11.72-4.39,15.28-15,17.69-6.75,1.53-13.8,1.82-20.16,4.93-4,.42-8,1.71-12.08.8,0-.67.05-1.34.08-2,12-1.3,23.34-5.33,35.06-7.77,9-3.14,10.84-7.08,7.79-16.81.12-1.55.19-3.12,1.52-4.23,3.37,4,9.28,5.56,11.08,11.08,1.46,4.47,4.85,6.87,8.23,9.88,5.16,4.6,7.74,11.53,10.89,17.76A3.31,3.31,0,0,1,250,85.15c-.29-.85-.38-1.82-1.32-2.3-.84-6.85-3.14-8.12-8.79-4.84A58.4,58.4,0,0,1,227,83.13c-5.29,1.6-11,1.71-16.07,4Z"/><path class="cls-1" d="M68.91,201c0,3.12,4.86,2.81,4.45,6.24a9.7,9.7,0,0,1-5.24,3.94l-.48-.44.44.48c-14.33,11-30.47,15.91-48.4,13.25-6.56-1-12.37-4.34-14-11.71-1.62-7.13.86-13,6.23-17.75a1.85,1.85,0,0,0,2-2h0c3.26.78,4.07-1.6,5-3.86a1,1,0,0,1,.76-.26c1.5.16,3,.27,3.32-1.76l.09,0c1.72-.45,4.22,1,4.85-2.05l1.87-.47.12,4c-2.78,1.78-5.69,3.39-8.32,5.38-7.22,5.44-10.56,14-8,19.76,2.75,6.2,10.36,8.63,20,6.73C47.51,217.71,58.44,209.79,68.91,201Zm0,6c-1.49.32-3.3-.73-4.68,1.22,2.14,1.26,3.43,0,4.71-1.2.63-.1,1.36-.11,1.47-.94,0-.17-.38-.57-.55-.55C69,205.64,69,206.37,68.9,207Zm-12.15,9c-.6-.38-1-.82-1.32-.79s-.68.51-1,.79c.33.28.65.76,1,.79S56.15,216.39,56.75,216Zm5.78-3.73c-.11-.27-.15-.7-.34-.78s-.53.17-.81.28c.11.27.15.69.34.78S62.25,212.39,62.53,212.28Z"/><path class="cls-3" d="M346.66,212.9c-5.22.08-9.87-.94-12.45-6.21-2.26-4.64-1.21-9.59-1-15.22-3.42,3.13-3.07,7.45-6,9.75a6.66,6.66,0,0,1,.49-4.16c1.43-3.54,3.76-6.77,4.08-10.74,2,2.14,3.43.71,4.8-.87l3.18-3.66c.9,5.72-5.88,8.37-5,14.92.87,6.78.59,10.34,5.14,13.49,3.63,2.49,4.18,1.21,4-2.23,5.36,1.63,13.9-4.37,14.62-10.13.23-1.86-.92-1.78-2.05-2A16.84,16.84,0,0,1,345,188l-3.17,8c-1.92-4.53,1.4-7.14,3.69-10.13,1.31-1.7,2.79-3.79,1.6-5.71-1.5-2.41-3,.78-4.62.73-.65,0-1.3,0-2,0,2.88-2.42,5.53-5.21,8.69-7.19a10.15,10.15,0,0,1,15.38,7.12c.33,1.93-.08,4,.29,5.92.33,1.68-2,4.18,1.08,5,2.13.55,7-4.33,6.25-6.47-.66-2,.29-4-.9-5.93-.84-1.37-.54-3.26,0-4.85.85-2.56,1.82-5.44,5.26-4.8,3.23.6,3.08,3.44,2.85,6-.17,1.81-.47,3.61-.71,5.41-3.37-1.34,0-3.66-.76-5.52-.53-1.36-.75-2.46-2.45-2.47s-2.33.58-2.65,2.23c-1.19,6,1.21,8.23,8,7.23l-1.95-1.35c4,.74,7.94-2.59,12-.14-3.71-.42-6,.67-6.11,4.95a5,5,0,0,1-3.94,5,18.92,18.92,0,0,0,.79-2.3c.28-1.24,2.5-2.73.24-3.66-1.47-.6-4-1-5,.95-2.68,5.31-7.18,8.06-12.53,9.87a3.92,3.92,0,0,0-2.31,2.43A26.06,26.06,0,0,1,346.66,212.9Zm14.83-27.72c-.1-5.86-2.41-9.34-5.94-9.34-4,0-6.91,3.44-6.86,8.2,0,4.53,4.54,9.36,8.95,9C363.27,192.55,359.64,187.29,361.49,185.18Z"/><path class="cls-6" d="M313.88,107.06c5.21-2.34,11.43-3.14,15.23-7.72C337.77,88.9,338,82.19,332,70.65a55.83,55.83,0,0,0-12.38-15.93c-10.65-9.38-21.8-17.9-34.41-24.52-1.75-.92-5.52-1.21-4.66-4,.68-2.23,3.46,1.08,5.32-.06l0,0c1.16,3.32,4.59,3.55,7.05,5,15.23,9,30.16,18.43,39.72,33.82,4.65,7.48,8.43,15.75,6.18,25.19-2.4,10.11-12.45,18.37-22.94,18.92A1.82,1.82,0,0,0,313.88,107.06Z"/><path class="cls-6" d="M91.94,109C78,107.4,67.48,93.55,69.63,80.65,72.41,63.93,83.54,53.34,95.7,43.46c8.55-7,18-12.63,27.71-17.94-.46,5.43-5.51,6.93-9.2,9.07C99.08,43.35,86,54.29,77.07,69.41,70.92,79.87,71.31,90.63,79.56,99c3.27,3.33,8.15,5.07,12.3,7.53C91.89,107.37,91.91,108.19,91.94,109Z"/><path class="cls-2" d="M295.58,205.23c2.28-7.45,1.39-15.74,6-22.59a5.08,5.08,0,0,0,.48-3.77c-.32-2.23.17-4.14,3.21-3.19.84.26,1.77.36,2.2-.47.59-1.11-.29-1.58-1.12-2.26-1.92-1.6-.37-4.28-1.58-6.18a1.79,1.79,0,0,1,.86-1.84c1.41,0,1.74-.83,2.33-2,2.37-4.63,4.56-9.49,7.74-13.53,2.8-3.57,5.62-7.13,8.2-10.86l.92-.73c.14,1.59,1.29,2.27,2.55,2.84a122.77,122.77,0,0,0-13.07,24.55c-3.07.58-4.33,2-2.21,4.89l-.51,1.91c-2.64,3.94-5.58,7.84-3.59,13,.59,1.52-.18,2.89.07,4.32-.67,2.1-3.27,3.14-3.11,5.69-3.44,2.23-3,5-1.13,8l-.27,2c-1.18.13-1.59.9-1.65,2l-6.25-1.79Z"/><path class="cls-7" d="M29.91,188.57l-.12-4c3.06-1.7,8-.95,8.19-6.37,0-1,.72-2-.06-2.85-1.16-1.2-2.09.05-3,.57-9,5-18,6.34-27.54,1.27-5.1-2.7-5.9-7.51-7.31-12.18,4.45,1.94,3.43-2.12,4.4-4,.52,3.24.21,6.59,2.11,9.62,5.54,8.81,21.56,9.09,29.19.19,1.68-2,2.92-2.91,5.23-1.55.41,2.1-2.44,5.07-.36,5.91,3,1.23,1.49,2,.61,3.23-5.76,8.27-6.15,18.17-8.25,27.53-.29,1.28-.71,3.4,1.29,3.77a3.59,3.59,0,0,0,4.13-2.85,61.92,61.92,0,0,0,1.5-8.76c.2-1.95.34-3.68,2.69-4.1-1.05,4.85-2,9.74-3.22,14.54-.68,2.56-2.39,4.6-5.44,3.87-2.87-.69-2.27-3.12-2.25-5.3.07-6.65,2.33-13,3.37-19.85Z"/><path class="cls-2" d="M163.75,205.33a11.09,11.09,0,0,0-7.7-8,14.48,14.48,0,0,0,3.25-6.44c1.4-5.25,3.71-10.09,7.85-13.84,3.59-.45,6-2.26,6.79-5.91l4.78-2.2,4.73.32c-.71,1.66-2.68,2.11-2.56,3.79a50.35,50.35,0,0,0-10,13,24.32,24.32,0,0,0-3.2,6.3c-1,2.49-3.88,6.44,1.08,8.66l3.09,3c0,.69-.06,1.39-.1,2.08C169.17,205.25,166.14,208.44,163.75,205.33Z"/><path class="cls-6" d="M123.94,233.59c9.58-1.1,19.21-.86,28.81-1.22,26-1,52.06.35,78.09.78,5.64,1.8,11.45.4,17.16.89,1.29.26,3-.72,3.73,1.22-9.95.75-19.87-.58-29.81-.42-11.32-1.44-22.66-.93-34-.44l-64,.6C123.92,234.53,123.93,234.06,123.94,233.59Z"/><path class="cls-3" d="M59.91,121.13c.35,2.36,2.21,1.79,3.72,2s3.71-.75,4.29,1.84c-1.33-.07-2.65-.17-4-.2-24.37-.58-44.08,7.94-57.21,29.3L6,154c.68-2.24,1.49-4.5-1.1-6.15,12.2-16.64,29.27-24.45,49.16-27.07C55.93,120.56,58,121,59.91,121.13Z"/><path class="cls-2" d="M322.34,181.17a.57.57,0,0,1-.45-.38l-1.2-4.07c.08-.22.14-.45.2-.67,7.57.06,10.5,2.82,10.87,10.27-.32,4-2.65,7.2-4.08,10.74a6.66,6.66,0,0,0-.49,4.16l-.06,0c-2,.59-3.24,1.77-3.12,4l0,0c-3.06-.58-3.75,1.47-4.22,3.78l0,0c-3.63-1-6.37,2.27-9.83,2l-2-.34c-1.82-2.23-3.14-4.59-1.79-7.57l2.43,1,.15,2c-.67.7-.17.77.43.78,4.55.55,6.21-3.29,8.76-5.78,2-.23,2-1.63,1.85-3.09h0c2.56-1.65,1.61-4.44,2.17-6.75l.07-.1C325,187.88,324.56,184.55,322.34,181.17Z"/><path class="cls-6" d="M300.75,108.75c-7.41-1.52-12.91-5.3-15.75-12.63a9.8,9.8,0,0,1,2.48-10.92c9.56-9.36,26.77-6.41,33.52,5a6.34,6.34,0,0,1,.62,2.86c0,1.1.21,2.52-1.5,2.6-1.2.06-1.55-.91-2-1.88-3.81-8.9-11.3-12.16-20.3-9.74-4.57,1.23-8.74,1.88-9.32,7.71-.63,6.45,3.32,9.71,8.19,12.37,2,1.1,4.23,1.9,6.35,2.83C302.25,107.5,299.9,106,300.75,108.75Z"/><path class="cls-7" d="M320.69,176.72l1.2,4.07c-4.34-1.61-6.75,1.52-9.4,3.91-1.59,1.43-3,3.08-4.46,4.63-.25-1.43.52-2.8-.07-4.32-2-5.16,1-9.06,3.59-13,.57.7,1.11.5,1.6-.06,7.17-8.18,14.12-16.52,18.2-26.77.81-2,1.64-4.42-.45-6.42.58-1.27.13-1.83-1.21-1.69-2,.2-3,1.18-2.58,3.27l.24.32c-1.27-.57-2.42-1.25-2.56-2.84,2.11-3.34,5.34-3.39,8.23-1.91s2.87,4.6,2.07,7.48c-2.64,9.38-8.1,17.14-14.16,24.54-1.67,2-3.41,4-5.12,6-2.46,2.66-6.12,4.39-6.6,8.74,2.55-2.41,5.82-3.61,8.48-5.75l.11,0Z"/><path class="cls-6" d="M123.57,96.94c-1.75,6.25-6.38,9.3-12.21,11-1.38,0-3,.55-3.41-1.57,3.45-1.31,5.9-4.14,9.25-5.81,5.81-2.89,5.17-12.47-.72-15.31-8.21-4-14.38-2.53-21.86,2.41a6.52,6.52,0,0,0-3.07,5.41c-.07,1.62-.85,3.12-2.8,2.54-1.5-.44-1.75-2-1.38-3.35.95-3.46,2.85-7.23,5.69-8.46,7.27-3.13,14.8-7,23.15-2.62,3.48,1.83,6.63,3.72,7.37,8C121.06,91.76,121.19,94.35,123.57,96.94Z"/><path class="cls-8" d="M248.66,82.85c.94.48,1,1.45,1.32,2.3-5.13,7.92-6.41,17.2-9,26-4.3,14.51-5.62,15.75-21.1,16.91-5.33.17-10.71-.64-16,.72l-2-.09c-1.91-1.18-4-.67-6-.6l-3-.18c7.3-1.92,14.73-.28,22.08-.87,1.77-.14,4.18,1,4.9-1.91l6-1c2.23.92,4.58,2.45,5.94-1.16,0-.27,0-.54,0-.81,2.57-.12,3.05-2.1,3.62-4,2.4-8,4.66-16.13,7.3-24.09,1.41-4.28.13-5.68-4.08-5.12l-.88-.89v-2.7c3.62.4,7.69,2.89,10.15-2.16C248.23,83.05,248.44,83,248.66,82.85Z"/><path class="cls-2" d="M380.78,191a5,5,0,0,0,3.94-5c.15-4.28,2.4-5.37,6.11-4.95h0c.06,2.62,1.52,5.08.91,7.77l-.05.16c-1.77.18-2.49,1.75-3,2.95-2.39,5.49-5.77,10.93-2.33,17.23a1,1,0,0,1,.53.63l.1.07,1.85,1.19c-2.09,4.09-5.71,1.11-8.53,1.85-3.84-2.79-3.12-7-3.35-10.88.57-1.69,1.13-3.38,1.7-5.06,3.88-.86,1.48-4,2.14-6Z"/><path class="cls-8" d="M221.3,42.1c-1.33,1.11-1.4,2.68-1.52,4.23-1.43,1.29-2.79,2.67-4.3,3.84-2.5,1.92-4.71,4.67-8.5,3.44-2.55-2.07-5.17-4-7.6-6.24-1.25-1.12-2.28-1.86-3.81-.67l-1.6,0-.1-2.44c2.53-.65,1.92-2.49,1.85-4.35-.21-5.71,4.24-8.8,9.6-6.69,2,.77,3.55,1.88,5.9.38a6.81,6.81,0,0,1,8.37.34C222.2,36.09,222.32,39,221.3,42.1Zm-5.39,3,0,0c2-.79,2.2-2.78,2.78-4.41s.85-3.65-1.13-4.81-4.06-1.33-5.46,1.12a6.9,6.9,0,0,1-6.92-.95c-2-1.35-4.81-2.42-6.13.92-1.59,4,2.18,10,7.66,13,4.68,2.62,5.93-1.61,8.2-3.87Z"/><path class="cls-2" d="M151.85,173c-2.29-.38-3.88,1.09-5.25,2.42-6,5.82-9.06,13.44-11.77,21.11-1,2.86,1.86,5.53,1.56,8.87a5.23,5.23,0,0,1-6.21-4.66,21.85,21.85,0,0,1,2.63-14.13c3.76-6.73,9.75-11.19,14.09-17.17,1.93-1,4-.32,6-.45,0,1.2,0,2.4,0,3.6Z"/><path class="cls-2" d="M340.5,180.87c.66,0,1.31,0,2,0,1.63.05,3.12-3.14,4.62-.73,1.19,1.92-.29,4-1.6,5.71-2.29,3-5.61,5.6-3.69,10.13-.05.33-.1.66-.14,1-.62.1-1.33.2-1.38,1s.65.93,1.27,1.05c.16,3.14.4,6.27,2.33,8.95.15,3.44-.4,4.72-4,2.23-4.55-3.15-4.27-6.71-5.14-13.49-.84-6.55,5.94-9.2,5-14.92Z"/><path class="cls-7" d="M380.3,212.88c2.82-.74,6.44,2.24,8.53-1.85,12.19-2.5,18.54-11.28,23.31-21.73.72-1.58.73-3.59,3-4.49,1.31,1.68.94,3.54.3,5.12C411,201,404,209.66,392.57,214,388.49,215.55,384.14,216,380.3,212.88Z"/><path class="cls-7" d="M168.79,201c-5-2.22-2.1-6.17-1.08-8.66a24.32,24.32,0,0,1,3.2-6.3c-.11,1.68.71,2.08,2.12,1.42,4.56-2.1,8.83-4.62,11.64-9,1.06-1.67,2.32-3.68,1.2-5.5-1.34-2.17-3.28.41-5,.06-.12-1.68,1.85-2.13,2.56-3.79l-4.73-.32c3.41-1.83,6.9-1.8,9.58.93,2.87,2.92,1,6.29-.47,9.2-2.84,5.6-8,8.66-13.46,11.16C167.75,193.29,167.57,193.5,168.79,201Z"/><path class="cls-7" d="M193.87,44.24c0,.81.06,1.63.1,2.44-5.47,3.64-6,5.68-2.41,8.59l3.29,1.93c0,.45,0,.89,0,1.33-6.67-1.64-12.29.34-17.1,5-2.28,2.21-3,4.63-.83,7.36,0,.67-.05,1.34-.07,2-1.75.18-2.55-1.53-4-2l-1.1-3.11c.87-5.88,5.61-8.22,10-10.77,2.3-1.33,4.27-2.27,4.49-5.68C186.56,47.22,189.5,44.68,193.87,44.24Z"/><path class="cls-7" d="M171.78,206.13c0-.69.07-1.39.1-2.08,7.94-3.71,15.17-8.27,19.67-16.16.65-1.15,1.36-2.28,2.1-3.38.56-.84,1.3-1.7,2.39-.94.8.55.43,1.44.15,2.25-1.49,4.37-4.46,7.76-7.59,10.93-3.92,4-7.87,8.1-13.86,8.95l-.43-.07.29.25-1.81.78-1-.6Z"/><path class="cls-6" d="M251.73,235.26c-.74-1.94-2.44-1-3.73-1.22l.06-.41c17.23-.19,34.4,1.12,51.58,2,0,.35,0,.7,0,1.06C283.61,237.42,267.67,236.45,251.73,235.26Z"/><path class="cls-9" d="M259.88,21.52c-2.87-.26-5.22-.76-6.4-3.09-1.1-2.17,0-3.82,1.86-5a1.65,1.65,0,0,0,.86-2c-.52-2.33.38-3.94,2.81-4.37A6.12,6.12,0,0,1,264.89,9c1.58,1.76.87,3.43-.75,4.7-1.1.86-.53,1.63-.28,2.57C264.87,20.06,262.78,21.34,259.88,21.52Zm-1-7.19c-1.55.22-3,.71-3.14,2.51-.14,2.14,1.52,2.75,3.23,3a2.3,2.3,0,0,0,2.83-2.1C262,15.75,260.64,14.81,258.87,14.33Zm1.95-1.57c1.17-.19,2.28-.63,2.21-2.06s-1.27-1.77-2.46-1.81-2,.27-1.94,1.6A2.28,2.28,0,0,0,260.82,12.76Z"/><path class="cls-9" d="M144.39,18.31c.06,3.66-3.71,7.47-7.68,7.78-1.4.11-6.66-8.72-6-10.92,1-3.24,4.32-3.07,7-3.23A6.24,6.24,0,0,1,144.39,18.31Zm-2.4-.06c-.44-2.23-1.48-4.62-4.9-4.4-1.46.09-4.1-.19-3.43,2.29.72,2.66.74,6.54,4.07,7.18C139.87,23.74,142.08,21.83,142,18.25Z"/><path class="cls-6" d="M123.94,233.59c0,.47,0,.94,0,1.41l-39.75,2.73C86.2,235.3,112.88,232.64,123.94,233.59Z"/><path class="cls-9" d="M224.78,14.37c1.19-1.77,3.4-1,3.86-2.89.31-1.14-.68-1.16-1.41-1.42-2.76-1-4.12-2.85-3.24-5.77,1-3.19,3.53-3.74,6.39-3.23s4,2,3.71,5.25C233.6,12.28,231.34,14.63,224.78,14.37Zm7.49-8.28c0-2.47-1.24-3.47-3.07-3.57a2.71,2.71,0,0,0-3,2.66,2.47,2.47,0,0,0,2.52,3C230.54,8.29,232,7.81,232.27,6.09Z"/><path class="cls-9" d="M173.55,5.58c-.35-5,3.17-3.62,5.14-3.81,4.66-.44,7.6,2.26,7.55,6.38s-3.34,7.54-8.42,7C171.14,14.42,176,8,173.55,5.58Zm2.64,1.29c1.8,1.39-1.87,6.26,3.3,6.25,3,0,4.45-2,4.23-5s-1.81-4.88-5.07-4.86C176.56,3.29,175.58,4.24,176.19,6.87Z"/><path class="cls-9" d="M240.67,15.54c1.38-.65,3.15-.49,4.09-2-.17-.79-.82-.89-1.44-1.07-2.88-.82-4.88-2.38-3.85-5.69s3.7-4.15,6.72-3.36,4.6,3,4,6.37C249.2,14.87,244.47,17.76,240.67,15.54ZM248,7.67A2.9,2.9,0,0,0,244.77,5a2.72,2.72,0,0,0-3,2.65c-.2,2.08,1.09,3.1,2.89,3.23S247.75,9.91,248,7.67Z"/><path class="cls-9" d="M167.81,4.17c-.55,1.74-1.77,1.12-2.62,1.39-1.07.33-2.57.29-2.55,1.83s1.4,1.68,2.54,1.92c3,.63,6.16,1.79,4.5,5.45-1.57,3.45-5,3.69-8.4,2.18.53-1.7,1.65-1.17,2.57-1.24,1.5-.1,3.41-.15,3.68-1.87.32-2.08-1.86-2.1-3.17-2.34-2.77-.51-5.36-1.64-4.31-4.72C161.28,3.15,164.52,3.24,167.81,4.17Z"/><path class="cls-9" d="M197.68,1.49c-1.34,1.17-4.54-.77-4.46,2.29.07,3.26,3.73.9,5.05,2.59-.8,2.3-5.32-.08-4.65,3.67.62,3.5,4.2.55,5.68,2.37-6.25,3.08-8.16,2.06-8.39-4.43,0-.67,0-1.33,0-2C190.7-.78,191.15-1.08,197.68,1.49Z"/><path class="cls-9" d="M155.7,12.64c-.83,2.15-5.21.79-3.87,4.31s4-.13,6.87,1.43A12.9,12.9,0,0,1,151,20.64c-.64,0-4.35-11-3.84-11.58,2-2.19,4.71-2.3,7.51-2.56-.07,3.35-5.45,1-4.52,4.63C151,14.39,154,10.74,155.7,12.64Z"/><path class="cls-3" d="M152.88,172.6c0-1.2,0-2.4,0-3.6,4.37-1.33,6,1.27,6.79,4.85a8.38,8.38,0,0,1-1.21,5.74c-1.11,2-2.36,5.73-5,4.28-3-1.63.64-3.69,1.36-5.58C155.75,175.86,158.5,172.79,152.88,172.6Z"/><path class="cls-6" d="M39.72,241.28c10.5-1.64,20.79-5.64,31.61-3.29,1.74.38,2.66-1.12,4-1.57,1.2-.4,2.57-.37,2.71,1.16s-1.35,1.08-2.22,1.15Q57.78,240,39.72,241.28Z"/><path class="cls-3" d="M171.78,67.84l1.1,3.11c-2.53,2.1-5.51,3.77-6.75,7.1-2.56,2.87-1,5.36.73,7.84l0,3.27c-5.61-4.11-6.42-9.91-2.05-15.17A32.12,32.12,0,0,1,171.78,67.84Z"/><path class="cls-1" d="M323.87,138.55c-2.58,3.73-5.4,7.29-8.2,10.86-3.18,4-5.37,8.9-7.74,13.53-.59,1.16-.92,2-2.33,2,3.21-9.61,9-17.65,15.69-25.05A8.5,8.5,0,0,1,323.87,138.55Z"/><path class="cls-6" d="M299.6,236.73c0-.36,0-.71,0-1.06,8.17-1,16.23,0,24.27,1.28h-6.86l0,1h3.8l0,.46C313.69,238.77,306.58,238.66,299.6,236.73Z"/><path class="cls-7" d="M267.91,149.27c-.09,1.4-.19,2.8-.28,4.25,1.56,1.14,3-.9,4.48-.25-2,3.46-5.24,5.38-8.55,7.22-1.06.59-2.3,1.94-3.41.34-.81-1.16.25-2.25,1.06-3C263.89,155.31,265.75,152.18,267.91,149.27Z"/><path class="cls-2" d="M4.85,147.89C7.44,149.54,6.63,151.8,6,154c0,.32,0,.64,0,1l-.06,0c-1.13,1.11-2.38,2.19-1,4l-.39,2c-1,1.88,0,5.94-4.4,4C-.49,158.7,3.13,153.56,4.85,147.89Z"/><path class="cls-6" d="M108,106.41c.41,2.12,2,1.6,3.41,1.57a32.93,32.93,0,0,1-19.42,1c0-.82,0-1.64-.08-2.45A53.9,53.9,0,0,0,108,106.41Z"/><path class="cls-9" d="M217.84,5.55c-.77,2.89-.08,8-1.75,7.66-3.09-.67-.39-4.68-.9-7.23-.19-.93.21-2-.86-2.64-1.68-1.06.87-.47.6-1.44S215.88.28,217,.37c.89.07.83.86.84,1.49C217.86,3.19,217.84,4.51,217.84,5.55Z"/><path class="cls-7" d="M386.35,209.14c-3.44-6.3-.06-11.74,2.33-17.23.52-1.2,1.24-2.77,3-2.95C389.74,195.64,385.39,201.69,386.35,209.14Z"/><path class="cls-6" d="M347.77,238.11a60.29,60.29,0,0,1,16.2,2,69.54,69.54,0,0,1-21.41-1C344.27,238.64,346.26,239.61,347.77,238.11Z"/><path class="cls-6" d="M347.77,238.11c-1.51,1.5-3.5.53-5.21,1-7.24-.2-14.5.24-21.71-.75l0-.46c3.6-.39,7.32.93,10.83-.73C337.11,236.67,342.42,237.78,347.77,238.11Z"/><path class="cls-6" d="M187.93,234.4c11.33-.49,22.67-1,34,.44C210.58,235,199.25,235.34,187.93,234.4Z"/><path class="cls-6" d="M300.75,108.75c-.85-2.71,1.5-1.25,2.32-1.78l10.81.09a1.82,1.82,0,0,1,2,1.94A60.56,60.56,0,0,1,300.75,108.75Z"/><path class="cls-3" d="M310,211c3.46.27,6.2-3,9.83-2C316.76,210.87,313.89,213.53,310,211Z"/><path class="cls-7" d="M173.94,171.15c-.8,3.65-3.2,5.46-6.79,5.91C168.37,173.89,171.09,172.45,173.94,171.15Z"/><path class="cls-7" d="M212.91,195c1-1.07,2.2-2,2.27-3.65,1.52-.17,3.78-1.08,4.13.88s-2.27,1.61-3.59,2.2A12.29,12.29,0,0,1,212.91,195Z"/><path class="cls-6" d="M248.06,233.63,248,234c-5.71-.49-11.52.91-17.16-.89C236.59,233,242.34,232.66,248.06,233.63Z"/><path class="cls-6" d="M123.57,96.94c-2.38-2.59-2.51-5.18,0-7.75A13.46,13.46,0,0,1,123.57,96.94Z"/><path class="cls-3" d="M391.74,188.8c.61-2.69-.85-5.15-.91-7.77C395,183.17,393.47,186,391.74,188.8Z"/><path class="cls-5" d="M203.88,128.76c5.28-1.36,10.66-.55,16-.72C214.6,129.53,209.24,129.14,203.88,128.76Z"/><path class="cls-6" d="M331.71,237.2c-3.51,1.66-7.23.34-10.83.73h-3.8l0-1h6.86Z"/><path class="cls-7" d="M27.92,185c-.63,3-3.13,1.6-4.85,2.05C24.23,185.32,26.06,185.14,27.92,185Z"/><path class="cls-3" d="M319.82,209c.47-2.31,1.16-4.36,4.22-3.78A5.9,5.9,0,0,1,319.82,209Z"/><path class="cls-7" d="M272.11,153.28c-.54-2.56.31-4.12,3.07-4.33C274.75,150.81,274,152.43,272.11,153.28Z"/><path class="cls-7" d="M18.9,189.14c-.91,2.26-1.72,4.64-5,3.86A9.56,9.56,0,0,1,18.9,189.14Z"/><path class="cls-7" d="M214.42,191.76c-2.23.51-4.34,1.67-6.75,1.15A6,6,0,0,1,214.42,191.76Z"/><path class="cls-3" d="M324,205.2c-.12-2.24,1.12-3.42,3.12-4A5.24,5.24,0,0,1,324,205.2Z"/><path class="cls-5" d="M195.86,128.07c2-.07,4.1-.58,6,.6A10.47,10.47,0,0,1,195.86,128.07Z"/><path class="cls-7" d="M23,187.12c-.34,2-1.82,1.92-3.32,1.76A4.47,4.47,0,0,1,23,187.12Z"/><path class="cls-10" d="M233.68,167.09l-.94-1,2.62-.14C235.27,167.08,234.37,166.92,233.68,167.09Z"/><path class="cls-7" d="M13.92,193a1.85,1.85,0,0,1-2,2A2.27,2.27,0,0,1,13.92,193Z"/><path class="cls-7" d="M211.51,195h1.28l-1.08.71Z"/><path class="cls-10" d="M319.84,173l.38-1.25c.88.7,0,.91-.36,1.26Z"/><path class="cls-11" d="M285.87,26.1l.74-.5c-.12.09-.24.19-.37.27s-.27.13-.4.2Z"/><path class="cls-2" d="M171.77,206.06l1,.6C172.1,207.06,172,206.5,171.77,206.06Z"/><polygon class="cls-7" points="386.98 209.84 386.88 209.77 387.09 209.68 386.98 209.84"/><path class="cls-2" d="M96.57,187.42c4.09,3.65,3,8,3.08,12.12,0,.66.43,1.4.24,1.94-.74,2,3,3.58.91,5.11-1.52,1.09-2.76-1.35-3.69-2.51-1.58-2-3.94-4.34-1.07-6.76,1.55-1.32,1.32-1.59.13-2.82C94,192.17,94.7,189.79,96.57,187.42Z"/><path class="cls-2" d="M107.51,186.18c-.48-.76-1.22-2.22-1.39-2.16a3.47,3.47,0,0,0-2.13,3c-4-.77-2.31-3.78-2-5.85.49-3,3.89-2.83,5.85-4.28,1-.72,1.51,1.43,1.38,2C108.67,181.3,112.21,184.78,107.51,186.18Z"/><path class="cls-12" d="M218.68,92c.65,9.84-2.27,19.42-2.08,29.24.08,4.28-3.62,4.41-6.42,4.36-3.33,0-2.29-3.11-2.3-5-.08-9.16,0-18.31,0-27.47A36,36,0,0,0,218.68,92Z"/><path class="cls-12" d="M203.57,92.79c1.84,10,1.17,20.17,1.27,30.28a2.28,2.28,0,0,0-.92,2.15c-4.08,1.1-7.26.44-7.65-4.5-.74-9.28-3.19-18.43-2.23-27.84Z"/><path class="cls-13" d="M225.92,124.13l-6,1c-2-4.68.24-9.31.38-14,.21-7.18,1.56-14.32,2.42-21.47,3.12.35,6.22.51,9.2-.74a1.67,1.67,0,0,1,.83,2.09Q229.32,107.58,225.92,124.13Z"/><path class="cls-12" d="M189.8,91c1.51,9,1.8,18.13,3.73,27.08.46,2.1,2.31,5.85-1.61,6.66-3.33.68-5.29-1.6-6-5.12-1.76-8.94-4.91-17.58-5.73-26.72C183.57,93.13,187,93.45,189.8,91Z"/><path class="cls-12" d="M183.7,122.92a7,7,0,0,1-5.11-5.3c-2.35-8.29-4.83-16.53-7.24-24.8-.41-1.4-1.2-3.08,1.06-3.6,1.89-.43,3.75-.28,4.29,2.14C179,101.65,181.26,111.94,183.7,122.92Z"/><path class="cls-11" d="M210.89,87.15c5.11-2.31,10.78-2.42,16.07-4,3,2.15,6,.33,9,.06-.38.58-.75,1.16-1.12,1.74l-3,1.83c-3.35.86-6.62.29-9.88-.53l-2,.08A26.67,26.67,0,0,1,210.89,87.15Z"/><path class="cls-14" d="M203.57,92.79l-9.53.09c-.28-.4-.73-.77-.79-1.2a1.31,1.31,0,0,1,2.19-1.32C197.76,92.75,202.38,87.16,203.57,92.79Z"/><path class="cls-13" d="M218.68,92a36,36,0,0,1-10.79,1.09c-.07-1.51-.3-3.11,2-3.18l9,.15C218.83,90.67,218.75,91.32,218.68,92Z"/><path class="cls-8" d="M218.9,90l-9-.15c0-.63,0-1.26,0-1.89l1-.83a26.67,26.67,0,0,0,9-.84A6.31,6.31,0,0,1,218.9,90Z"/><path class="cls-8" d="M221.89,86.23c3.26.82,6.53,1.39,9.88.54l.12,2.18c-3,1.25-6.08,1.09-9.2.74C222.42,88.53,222.16,87.38,221.89,86.23Z"/><path class="cls-13" d="M189.8,91c-2.84,2.43-6.23,2.11-9.59,1.9-.16-1-.79-2.78.81-2.67C183.94,90.45,187.06,88.86,189.8,91Z"/><path class="cls-7" d="M203.92,125.22a2.28,2.28,0,0,1,.92-2.15C204.63,123.83,205.6,125.09,203.92,125.22Z"/><path class="cls-10" d="M189.94,78.17c-2.34.92-4.24,2.85-6.9,3-3.38-1.13-2-2.35-.33-4.11,1.89-1.94,5.88-1.2,6.22-5,6.36-3.11,13.41-3.4,20.16-4.93,10.66-2.41,15.58-6,15-17.69,4.28,1.37,6,4.71,6.76,8.35,1,4.6-.7,8.39-4.49,11.32-3.24,2.51-7.37,2.84-10.83,4.77-5.36-1.53-10.86-.6-16.29-.91C195.09,72.79,191.9,74.35,189.94,78.17Z"/><path class="cls-14" d="M189.94,78.17c2-3.82,5.15-5.38,9.35-5.14,5.43.31,10.93-.62,16.29.91,1.72,2.06,4,.68,6,.9A7.75,7.75,0,0,0,230,79.17c-13.23,3.91-26.38,8.66-40.92,3.59,2.63-3.09,6.06-3.39,9.54-4.64C195.27,75.68,192.63,78.37,189.94,78.17Z"/><path class="cls-14" d="M176.93,70.91c-2.19-2.73-1.45-5.15.83-7.36,4.81-4.68,10.43-6.66,17.1-5,2.69,1.28,5.51.49,8.28.53,3.66-.16,4.77,5.18,8.85,4.08C200.27,65.58,188.9,69.61,176.93,70.91Z"/><path class="cls-14" d="M188.93,72.12c-.34,3.77-4.33,3-6.22,5-1.72,1.76-3.05,3,.33,4.11-8.28,4.74-12.9,3.88-16.91-3.15,1.24-3.33,4.22-5,6.75-7.1,1.43.45,2.23,2.16,4,2C181,73.83,184.92,72.54,188.93,72.12Z"/><path class="cls-10" d="M230,79.17a7.75,7.75,0,0,1-8.47-4.33c4.63-3,10.76-4.2,12.42-10.65a1.08,1.08,0,0,1,1.52-.84,10.63,10.63,0,0,1,5.91,5.09c1.2,2.39-.18,4.09-1.77,5.71C237,76.88,233.48,78,230,79.17Z"/><path class="cls-10" d="M212,63.14c-4.08,1.1-5.19-4.24-8.85-4.08,0-.65-.09-1.31-.13-2l4-3.48c3.79,1.23,6-1.52,8.5-3.44,1.51-1.17,2.87-2.55,4.3-3.84C222.83,56.06,221,60,212,63.14Z"/><path class="cls-14" d="M235.94,83.2c-3,.26-6,2.08-9-.07A58.4,58.4,0,0,0,239.87,78c5.65-3.28,7.95-2,8.79,4.84-.22.1-.43.2-.64.32-1.53-.13-3.24.39-4.34-1.24.25-.92,2.34-2.9-.85-1.93-1.81.54-3.34,2-5,3l0,0Z"/><path class="cls-2" d="M68.93,207c-1.28,1.24-2.57,2.46-4.71,1.2,1.38-1.95,3.19-.9,4.68-1.22Z"/><path class="cls-2" d="M56.75,216c-.6.38-1,.81-1.33.79s-.67-.51-1-.79c.33-.28.65-.76,1-.79S56.15,215.63,56.75,216Z"/><path class="cls-2" d="M68.9,207c.11-.63.12-1.36.95-1.47.17,0,.57.38.55.55-.11.83-.84.84-1.47.94Z"/><path class="cls-2" d="M62.53,212.28c-.28.11-.62.36-.81.28s-.23-.51-.34-.78c.28-.11.62-.36.81-.28S62.42,212,62.53,212.28Z"/><path class="cls-2" d="M68.08,211.21l-.44-.48.48.44Z"/><path class="cls-2" d="M378.87,181.17l1.95,1.35c-6.78,1-9.18-1.24-8-7.23.32-1.65,1.09-2.25,2.65-2.23s1.92,1.11,2.45,2.47c.72,1.86-2.61,4.18.76,5.52Z"/><path class="cls-1" d="M303.09,207.07c-3.22,3.2-5.59,2.6-7.47-1.88l6.25,1.79Z"/><path class="cls-3" d="M304.92,195a17,17,0,0,1-1.13,8C302,200,301.48,197.25,304.92,195Z"/><path class="cls-7" d="M314.27,165.21a12,12,0,0,1-2.21,4.89C309.94,167.18,311.2,165.79,314.27,165.21Z"/><path class="cls-3" d="M303.09,207.07l-1.22-.09c.06-1.06.47-1.83,1.65-2A1.88,1.88,0,0,1,303.09,207.07Z"/><path class="cls-2" d="M43.9,161c2.14-7.69,5.41-14.95,8.48-22.28A6.86,6.86,0,0,1,62,135.64c3.78,2.14,2.24,4.85.77,7.63A261.17,261.17,0,0,0,48.33,177.1c-.63,1.77-2.53,3.82-.39,5.91-.49,2.58-5.57,2.17-4,6.1q-.68,2.44-1.37,4.89c-2.35.42-2.49,2.15-2.69,4.1a61.92,61.92,0,0,1-1.5,8.76,3.59,3.59,0,0,1-4.13,2.85c-2-.37-1.58-2.49-1.29-3.77,2.1-9.36,2.49-19.26,8.25-27.53.88-1.26,2.4-2-.61-3.23-2.08-.84.77-3.81.36-5.91l.08-.21C46.42,167.91,42.93,163.66,43.9,161Z"/><path class="cls-7" d="M6.73,154c0,.54-.16.95-.8,1,0-.32,0-.64,0-1Z"/><path class="cls-7" d="M308.6,204.06l-2.43-1c1.42-5.16,5.72-7.18,10-9.22,1.92-.91,3.85-1.77,5.77-2.65-.56,2.31.39,5.1-2.17,6.75,0-1.27.42-3-2-1.8C314,198,310.46,200,308.6,204.06Z"/><path class="cls-7" d="M322.34,181.17c2.22,3.38,2.67,6.71-.33,9.92C322.55,187.8,323.26,184.51,322.34,181.17Z"/><path class="cls-7" d="M317.94,201a5.45,5.45,0,0,1,1.85-3.09C319.9,199.41,319.9,200.81,317.94,201Z"/><path class="cls-7" d="M308.75,206a1.32,1.32,0,0,1,.43.78C308.58,206.81,308.08,206.74,308.75,206Z"/><path class="cls-2" d="M330.9,138.76c-1.28.48-2.11,2.07-3.79,1.57-.4-2.08.62-3.06,2.58-3.26C331,136.93,331.48,137.49,330.9,138.76Z"/><path class="cls-4" d="M231.89,89l-.12-2.18,3-1.84,2.18,0a2.34,2.34,0,0,1,.87.42V88c-4.81,10.69-5.81,22.36-8.52,33.58-.41,1.71,1.45,1.27,2.51,1.36-1.36,3.61-3.71,2.08-5.94,1.16q3.39-16.55,6.8-33.09A1.67,1.67,0,0,0,231.89,89Z"/><path class="cls-13" d="M238.75,88.92c4.21-.56,5.49.84,4.08,5.12-2.64,8-4.9,16-7.3,24.09-.57,1.93-1.05,3.91-3.62,4,.23-7.18,3.74-13.53,5.12-20.41C237.88,97.51,240.42,93.5,238.75,88.92Z"/><path class="cls-12" d="M238.75,88.92c1.67,4.58-.87,8.59-1.72,12.83-1.38,6.88-4.89,13.23-5.12,20.41,0,.27,0,.54,0,.81-1.06-.09-2.92.35-2.51-1.36,2.71-11.22,3.71-22.89,8.52-33.58Z"/><path class="cls-11" d="M237.87,85.33a2.34,2.34,0,0,0-.87-.42c.29-.63.58-1.26.86-1.89l0,0c2.09.37,3.94-.53,5.84-1.11,1.1,1.63,2.81,1.11,4.34,1.24C245.56,88.22,241.49,85.73,237.87,85.33Z"/><path class="cls-3" d="M378.65,196.94a12.92,12.92,0,0,1,2.14-6C380.13,193,382.53,196.08,378.65,196.94Z"/><path class="cls-2" d="M214.88,46.15c-2.27,2.26-3.52,6.49-8.2,3.87C201.2,47,197.43,41,199,37c1.32-3.34,4.15-2.27,6.13-.92a6.9,6.9,0,0,0,6.92.95c7.06,0,3.72,4.84,3.81,8.1l0,0Z"/><path class="cls-14" d="M207,53.61l-4,3.48-8.16.11-3.29-1.93c5.17-1.07,3.38-5.38,4-8.57,1.53-1.19,2.56-.45,3.81.67C201.81,49.57,204.43,51.54,207,53.61Z"/><path class="cls-11" d="M195.57,46.7c-.63,3.19,1.16,7.5-4,8.57-3.63-2.91-3.06-5,2.41-8.59Z"/><path class="cls-13" d="M215.88,45.11c-.09-3.26,3.25-8.13-3.81-8.1,1.4-2.45,3.37-2.34,5.46-1.12s1.76,3.07,1.13,4.81S217.87,44.32,215.88,45.11Z"/><path class="cls-13" d="M214.88,46.15l1-1.08Z"/><path class="cls-1" d="M341.65,197c0,.67-.08,1.34-.11,2-.62-.12-1.32-.27-1.27-1.05S341,197.11,341.65,197Z"/><path class="cls-15" d="M306.69,259.36l-.32.6c-.1-.1-.3-.23-.28-.31a3.24,3.24,0,0,1,.29-.63Z"/><path class="cls-5" d="M194.85,57.2l8.16-.11c0,.66.09,1.32.13,2-2.77,0-5.59.75-8.28-.53C194.86,58.09,194.85,57.65,194.85,57.2Z"/><path class="cls-2" d="M174.6,205.88l-.29-.25.43.07Z"/><path class="cls-10" d="M79.68,257a2.26,2.26,0,0,1-2.32,2.12c-1.79,0-1.53-1.31-1.56-2.41s.36-1.87,1.69-1.79A2.08,2.08,0,0,1,79.68,257Z"/><path class="cls-7" d="M5.87,155c-.34,1.32-.69,2.64-1,4C3.49,157.23,4.74,156.15,5.87,155Z"/><path class="cls-7" d="M44,189.11c-1.59-3.93,3.49-3.52,4-6.1a22.32,22.32,0,0,1,14.26,5c1,.79,2.53,1.78,1.49,3.19s-2.34.17-3.3-.68c-3-2.66-6.72-3.37-10.46-4.19C47.08,185.66,45.1,186.38,44,189.11Z"/><path class="cls-7" d="M43.9,161c-1,2.69,2.52,6.94-2.84,8.09C41.37,166.14,42.65,163.56,43.9,161Z"/><path class="cls-5" d="M237.86,83c-.28.63-.57,1.26-.86,1.89l-2.18,0c.37-.58.74-1.16,1.12-1.74Z"/><path class="cls-5" d="M243.68,81.93c-1.9.58-3.75,1.48-5.84,1.11,1.65-1,3.18-2.5,5-3C246,79,243.93,81,243.68,81.93Z"/><text class="cls-16" transform="translate(62.63 272.79)"><tspan class="cls-17">P</tspan><tspan x="13.14" y="0">ASTELARIA A</tspan><tspan class="cls-18" x="162.49" y="0">R</tspan><tspan x="177.54" y="0">TESANAL</tspan></text></g></g></svg>